<?xml version="1.0" encoding="utf-8" standalone="no"?>
<!DOCTYPE svg PUBLIC "-//W3C//DTD SVG 1.1//EN"
  "http://www.w3.org/Graphics/SVG/1.1/DTD/svg11.dtd">
<svg xmlns:xlink="http://www.w3.org/1999/xlink" width="509.054621pt" height="582.156003pt" viewBox="0 0 509.054621 582.156003" xmlns="http://www.w3.org/2000/svg" version="1.1">
 <metadata>
  <rdf:RDF xmlns:dc="http://purl.org/dc/elements/1.1/" xmlns:cc="http://creativecommons.org/ns#" xmlns:rdf="http://www.w3.org/1999/02/22-rdf-syntax-ns#">
   <cc:Work>
    <dc:type rdf:resource="http://purl.org/dc/dcmitype/StillImage"/>
    <dc:date>2026-06-13T12:37:22.177843</dc:date>
    <dc:format>image/svg+xml</dc:format>
    <dc:creator>
     <cc:Agent>
      <dc:title>Matplotlib v3.10.9, https://matplotlib.org/</dc:title>
     </cc:Agent>
    </dc:creator>
   </cc:Work>
  </rdf:RDF>
 </metadata>
 <defs>
  <style type="text/css">*{stroke-linejoin: round; stroke-linecap: butt}</style>
 </defs>
 <g id="figure_1">
  <g id="patch_1">
   <path d="M 0 582.156003 
L 509.054621 582.156003 
L 509.054621 0 
L 0 0 
z
" style="fill: #ffffff"/>
  </g>
  <g id="axes_1">
   <g id="patch_2">
    <path d="M 14.869064 103.91995 
L 51.680571 103.91995 
L 51.680571 122.325704 
L 14.869064 122.325704 
z
" clip-path="url(#pf6275e5142)" style="fill: #a9d08e; stroke: #5e8e3e; stroke-width: 1.2; stroke-linejoin: miter"/>
   </g>
   <g id="patch_3">
    <path d="M 21.004315 143.799083 
L 39.410068 143.799083 
L 39.410068 162.204836 
L 21.004315 162.204836 
z
" clip-path="url(#pf6275e5142)" style="fill: #808080; stroke: #4d4d4d; stroke-linejoin: miter"/>
   </g>
   <g id="patch_4">
    <path d="M 14.869064 185.212028 
L 51.680571 185.212028 
L 51.680571 200.550155 
L 14.869064 200.550155 
z
" clip-path="url(#pf6275e5142)" style="fill: url(#hd6b99be8d1); stroke: #c9a227; stroke-width: 1.6; stroke-linejoin: miter"/>
   </g>
   <g id="patch_5">
    <path d="M 14.869064 223.557347 
L 51.680571 223.557347 
L 51.680571 241.9631 
L 14.869064 241.9631 
z
" clip-path="url(#pf6275e5142)" style="fill: #f4b183; stroke: #c55a11; stroke-width: 1.4; stroke-linejoin: miter"/>
   </g>
   <g id="patch_6">
    <path d="M 48.612945 352.39762 
L 37.876256 344.728557 
L 37.876256 349.329995 
L 17.936689 349.329995 
L 17.936689 355.465246 
L 37.876256 355.465246 
L 37.876256 360.066684 
z
" clip-path="url(#pf6275e5142)" style="fill: #27a7df"/>
   </g>
   <g id="patch_7">
    <path d="M 48.612945 392.276753 
L 37.876256 384.607689 
L 37.876256 389.209127 
L 17.936689 389.209127 
L 17.936689 395.344378 
L 37.876256 395.344378 
L 37.876256 399.945817 
z
" clip-path="url(#pf6275e5142)" style="fill: #a11e1e"/>
   </g>
   <g id="patch_8">
    <path d="M 164.41581 86.281103 
L 428.998514 86.281103 
L 428.998514 519.583213 
L 164.41581 519.583213 
L 164.41581 86.281103 
z
" clip-path="url(#pf6275e5142)" style="fill: none; stroke: #1f3864; stroke-width: 3; stroke-linejoin: miter"/>
   </g>
   <g id="line2d_1">
    <path d="M 14.869064 312.518488 
L 51.680571 312.518488 
" clip-path="url(#pf6275e5142)" style="fill: none; stroke: #2e6e7e; stroke-width: 6"/>
   </g>
   <g id="line2d_2">
    <path d="M 164.41581 97.784699 
L 164.41581 185.978934 
" clip-path="url(#pf6275e5142)" style="fill: none; stroke: #2e6e7e; stroke-width: 6"/>
   </g>
   <g id="line2d_3">
    <path d="M 164.41581 201.317062 
L 164.41581 289.511297 
" clip-path="url(#pf6275e5142)" style="fill: none; stroke: #2e6e7e; stroke-width: 6"/>
   </g>
   <g id="line2d_4">
    <path d="M 164.41581 304.849424 
L 164.41581 393.043659 
" clip-path="url(#pf6275e5142)" style="fill: none; stroke: #2e6e7e; stroke-width: 6"/>
   </g>
   <g id="line2d_5">
    <path d="M 164.41581 408.381787 
L 164.41581 496.576022 
" clip-path="url(#pf6275e5142)" style="fill: none; stroke: #2e6e7e; stroke-width: 6"/>
   </g>
   <g id="line2d_6">
    <path d="M 428.998514 101.619231 
L 428.998514 220.489722 
" clip-path="url(#pf6275e5142)" style="fill: none; stroke: #2e6e7e; stroke-width: 6"/>
   </g>
   <g id="line2d_7">
    <path d="M 428.998514 316.35302 
L 428.998514 446.727106 
" clip-path="url(#pf6275e5142)" style="fill: none; stroke: #2e6e7e; stroke-width: 6"/>
   </g>
   <g id="patch_9">
    <path d="M 471.178365 516.017937 
Q 471.178365 302.930833 471.178365 89.843729 
" style="fill: none; stroke: #1f3864; stroke-width: 1.4; stroke-linecap: round"/>
    <path d="M 473.178365 512.017937 
L 471.178365 516.017937 
L 469.178365 512.017937 
" style="fill: none; stroke: #1f3864; stroke-width: 1.4; stroke-linecap: round"/>
    <path d="M 469.178365 93.843729 
L 471.178365 89.843729 
L 473.178365 93.843729 
" style="fill: none; stroke: #1f3864; stroke-width: 1.4; stroke-linecap: round"/>
   </g>
   <g id="text_1">
    <!-- 5.65 m -->
    <g style="fill: #1f3864" transform="translate(486.269149 325.802002) rotate(-90) scale(0.13 -0.13)">
     <defs>
      <path id="DejaVuSans-35" d="M 691 4666 
L 3169 4666 
L 3169 4134 
L 1269 4134 
L 1269 2991 
Q 1406 3038 1543 3061 
Q 1681 3084 1819 3084 
Q 2600 3084 3056 2656 
Q 3513 2228 3513 1497 
Q 3513 744 3044 326 
Q 2575 -91 1722 -91 
Q 1428 -91 1123 -41 
Q 819 9 494 109 
L 494 744 
Q 775 591 1075 516 
Q 1375 441 1709 441 
Q 2250 441 2565 725 
Q 2881 1009 2881 1497 
Q 2881 1984 2565 2268 
Q 2250 2553 1709 2553 
Q 1456 2553 1204 2497 
Q 953 2441 691 2322 
L 691 4666 
z
" transform="scale(0.015625)"/>
      <path id="DejaVuSans-2e" d="M 684 794 
L 1344 794 
L 1344 0 
L 684 0 
L 684 794 
z
" transform="scale(0.015625)"/>
      <path id="DejaVuSans-36" d="M 2113 2584 
Q 1688 2584 1439 2293 
Q 1191 2003 1191 1497 
Q 1191 994 1439 701 
Q 1688 409 2113 409 
Q 2538 409 2786 701 
Q 3034 994 3034 1497 
Q 3034 2003 2786 2293 
Q 2538 2584 2113 2584 
z
M 3366 4563 
L 3366 3988 
Q 3128 4100 2886 4159 
Q 2644 4219 2406 4219 
Q 1781 4219 1451 3797 
Q 1122 3375 1075 2522 
Q 1259 2794 1537 2939 
Q 1816 3084 2150 3084 
Q 2853 3084 3261 2657 
Q 3669 2231 3669 1497 
Q 3669 778 3244 343 
Q 2819 -91 2113 -91 
Q 1303 -91 875 529 
Q 447 1150 447 2328 
Q 447 3434 972 4092 
Q 1497 4750 2381 4750 
Q 2619 4750 2861 4703 
Q 3103 4656 3366 4563 
z
" transform="scale(0.015625)"/>
      <path id="DejaVuSans-20" transform="scale(0.015625)"/>
      <path id="DejaVuSans-6d" d="M 3328 2828 
Q 3544 3216 3844 3400 
Q 4144 3584 4550 3584 
Q 5097 3584 5394 3201 
Q 5691 2819 5691 2113 
L 5691 0 
L 5113 0 
L 5113 2094 
Q 5113 2597 4934 2840 
Q 4756 3084 4391 3084 
Q 3944 3084 3684 2787 
Q 3425 2491 3425 1978 
L 3425 0 
L 2847 0 
L 2847 2094 
Q 2847 2600 2669 2842 
Q 2491 3084 2119 3084 
Q 1678 3084 1418 2786 
Q 1159 2488 1159 1978 
L 1159 0 
L 581 0 
L 581 3500 
L 1159 3500 
L 1159 2956 
Q 1356 3278 1631 3431 
Q 1906 3584 2284 3584 
Q 2666 3584 2933 3390 
Q 3200 3197 3328 2828 
z
" transform="scale(0.015625)"/>
     </defs>
     <use xlink:href="#DejaVuSans-35"/>
     <use xlink:href="#DejaVuSans-2e" transform="translate(63.623047 0)"/>
     <use xlink:href="#DejaVuSans-36" transform="translate(95.410156 0)"/>
     <use xlink:href="#DejaVuSans-35" transform="translate(159.033203 0)"/>
     <use xlink:href="#DejaVuSans-20" transform="translate(222.65625 0)"/>
     <use xlink:href="#DejaVuSans-6d" transform="translate(254.443359 0)"/>
    </g>
   </g>
   <g id="patch_10">
    <path d="M 425.434847 557.928533 
Q 296.707628 557.928533 167.98041 557.928533 
" style="fill: none; stroke: #1f3864; stroke-width: 1.4; stroke-linecap: round"/>
    <path d="M 421.434847 555.928533 
L 425.434847 557.928533 
L 421.434847 559.928533 
" style="fill: none; stroke: #1f3864; stroke-width: 1.4; stroke-linecap: round"/>
    <path d="M 171.98041 559.928533 
L 167.98041 557.928533 
L 171.98041 555.928533 
" style="fill: none; stroke: #1f3864; stroke-width: 1.4; stroke-linecap: round"/>
   </g>
   <g id="text_2">
    <!-- 3.45 m -->
    <g style="fill: #1f3864" transform="translate(273.837318 572.25241) scale(0.13 -0.13)">
     <defs>
      <path id="DejaVuSans-33" d="M 2597 2516 
Q 3050 2419 3304 2112 
Q 3559 1806 3559 1356 
Q 3559 666 3084 287 
Q 2609 -91 1734 -91 
Q 1441 -91 1130 -33 
Q 819 25 488 141 
L 488 750 
Q 750 597 1062 519 
Q 1375 441 1716 441 
Q 2309 441 2620 675 
Q 2931 909 2931 1356 
Q 2931 1769 2642 2001 
Q 2353 2234 1838 2234 
L 1294 2234 
L 1294 2753 
L 1863 2753 
Q 2328 2753 2575 2939 
Q 2822 3125 2822 3475 
Q 2822 3834 2567 4026 
Q 2313 4219 1838 4219 
Q 1578 4219 1281 4162 
Q 984 4106 628 3988 
L 628 4550 
Q 988 4650 1302 4700 
Q 1616 4750 1894 4750 
Q 2613 4750 3031 4423 
Q 3450 4097 3450 3541 
Q 3450 3153 3228 2886 
Q 3006 2619 2597 2516 
z
" transform="scale(0.015625)"/>
      <path id="DejaVuSans-34" d="M 2419 4116 
L 825 1625 
L 2419 1625 
L 2419 4116 
z
M 2253 4666 
L 3047 4666 
L 3047 1625 
L 3713 1625 
L 3713 1100 
L 3047 1100 
L 3047 0 
L 2419 0 
L 2419 1100 
L 313 1100 
L 313 1709 
L 2253 4666 
z
" transform="scale(0.015625)"/>
     </defs>
     <use xlink:href="#DejaVuSans-33"/>
     <use xlink:href="#DejaVuSans-2e" transform="translate(63.623047 0)"/>
     <use xlink:href="#DejaVuSans-34" transform="translate(95.410156 0)"/>
     <use xlink:href="#DejaVuSans-35" transform="translate(159.033203 0)"/>
     <use xlink:href="#DejaVuSans-20" transform="translate(222.65625 0)"/>
     <use xlink:href="#DejaVuSans-6d" transform="translate(254.443359 0)"/>
    </g>
   </g>
   <g id="text_3">
    <!-- Legend -->
    <g style="fill: #222222" transform="translate(14.869064 85.982978) scale(0.13 -0.13)">
     <defs>
      <path id="DejaVuSans-Bold-4c" d="M 588 4666 
L 1791 4666 
L 1791 909 
L 3903 909 
L 3903 0 
L 588 0 
L 588 4666 
z
" transform="scale(0.015625)"/>
      <path id="DejaVuSans-Bold-65" d="M 4031 1759 
L 4031 1441 
L 1416 1441 
Q 1456 1047 1700 850 
Q 1944 653 2381 653 
Q 2734 653 3104 758 
Q 3475 863 3866 1075 
L 3866 213 
Q 3469 63 3072 -14 
Q 2675 -91 2278 -91 
Q 1328 -91 801 392 
Q 275 875 275 1747 
Q 275 2603 792 3093 
Q 1309 3584 2216 3584 
Q 3041 3584 3536 3087 
Q 4031 2591 4031 1759 
z
M 2881 2131 
Q 2881 2450 2695 2645 
Q 2509 2841 2209 2841 
Q 1884 2841 1681 2658 
Q 1478 2475 1428 2131 
L 2881 2131 
z
" transform="scale(0.015625)"/>
      <path id="DejaVuSans-Bold-67" d="M 2919 594 
Q 2688 288 2409 144 
Q 2131 0 1766 0 
Q 1125 0 706 504 
Q 288 1009 288 1791 
Q 288 2575 706 3076 
Q 1125 3578 1766 3578 
Q 2131 3578 2409 3434 
Q 2688 3291 2919 2981 
L 2919 3500 
L 4044 3500 
L 4044 353 
Q 4044 -491 3511 -936 
Q 2978 -1381 1966 -1381 
Q 1638 -1381 1331 -1331 
Q 1025 -1281 716 -1178 
L 716 -306 
Q 1009 -475 1290 -558 
Q 1572 -641 1856 -641 
Q 2406 -641 2662 -400 
Q 2919 -159 2919 353 
L 2919 594 
z
M 2181 2772 
Q 1834 2772 1640 2515 
Q 1447 2259 1447 1791 
Q 1447 1309 1634 1061 
Q 1822 813 2181 813 
Q 2531 813 2725 1069 
Q 2919 1325 2919 1791 
Q 2919 2259 2725 2515 
Q 2531 2772 2181 2772 
z
" transform="scale(0.015625)"/>
      <path id="DejaVuSans-Bold-6e" d="M 4056 2131 
L 4056 0 
L 2931 0 
L 2931 347 
L 2931 1631 
Q 2931 2084 2911 2256 
Q 2891 2428 2841 2509 
Q 2775 2619 2662 2680 
Q 2550 2741 2406 2741 
Q 2056 2741 1856 2470 
Q 1656 2200 1656 1722 
L 1656 0 
L 538 0 
L 538 3500 
L 1656 3500 
L 1656 2988 
Q 1909 3294 2193 3439 
Q 2478 3584 2822 3584 
Q 3428 3584 3742 3212 
Q 4056 2841 4056 2131 
z
" transform="scale(0.015625)"/>
      <path id="DejaVuSans-Bold-64" d="M 2919 2988 
L 2919 4863 
L 4044 4863 
L 4044 0 
L 2919 0 
L 2919 506 
Q 2688 197 2409 53 
Q 2131 -91 1766 -91 
Q 1119 -91 703 423 
Q 288 938 288 1747 
Q 288 2556 703 3070 
Q 1119 3584 1766 3584 
Q 2128 3584 2408 3439 
Q 2688 3294 2919 2988 
z
M 2181 722 
Q 2541 722 2730 984 
Q 2919 1247 2919 1747 
Q 2919 2247 2730 2509 
Q 2541 2772 2181 2772 
Q 1825 2772 1636 2509 
Q 1447 2247 1447 1747 
Q 1447 1247 1636 984 
Q 1825 722 2181 722 
z
" transform="scale(0.015625)"/>
     </defs>
     <use xlink:href="#DejaVuSans-Bold-4c"/>
     <use xlink:href="#DejaVuSans-Bold-65" transform="translate(63.720703 0)"/>
     <use xlink:href="#DejaVuSans-Bold-67" transform="translate(131.542969 0)"/>
     <use xlink:href="#DejaVuSans-Bold-65" transform="translate(203.125 0)"/>
     <use xlink:href="#DejaVuSans-Bold-6e" transform="translate(270.947266 0)"/>
     <use xlink:href="#DejaVuSans-Bold-64" transform="translate(342.138672 0)"/>
    </g>
   </g>
   <g id="text_4">
    <!-- table -->
    <g style="fill: #222222" transform="translate(68.552511 116.15814) scale(0.11 -0.11)">
     <defs>
      <path id="DejaVuSans-74" d="M 1172 4494 
L 1172 3500 
L 2356 3500 
L 2356 3053 
L 1172 3053 
L 1172 1153 
Q 1172 725 1289 603 
Q 1406 481 1766 481 
L 2356 481 
L 2356 0 
L 1766 0 
Q 1100 0 847 248 
Q 594 497 594 1153 
L 594 3053 
L 172 3053 
L 172 3500 
L 594 3500 
L 594 4494 
L 1172 4494 
z
" transform="scale(0.015625)"/>
      <path id="DejaVuSans-61" d="M 2194 1759 
Q 1497 1759 1228 1600 
Q 959 1441 959 1056 
Q 959 750 1161 570 
Q 1363 391 1709 391 
Q 2188 391 2477 730 
Q 2766 1069 2766 1631 
L 2766 1759 
L 2194 1759 
z
M 3341 1997 
L 3341 0 
L 2766 0 
L 2766 531 
Q 2569 213 2275 61 
Q 1981 -91 1556 -91 
Q 1019 -91 701 211 
Q 384 513 384 1019 
Q 384 1609 779 1909 
Q 1175 2209 1959 2209 
L 2766 2209 
L 2766 2266 
Q 2766 2663 2505 2880 
Q 2244 3097 1772 3097 
Q 1472 3097 1187 3025 
Q 903 2953 641 2809 
L 641 3341 
Q 956 3463 1253 3523 
Q 1550 3584 1831 3584 
Q 2591 3584 2966 3190 
Q 3341 2797 3341 1997 
z
" transform="scale(0.015625)"/>
      <path id="DejaVuSans-62" d="M 3116 1747 
Q 3116 2381 2855 2742 
Q 2594 3103 2138 3103 
Q 1681 3103 1420 2742 
Q 1159 2381 1159 1747 
Q 1159 1113 1420 752 
Q 1681 391 2138 391 
Q 2594 391 2855 752 
Q 3116 1113 3116 1747 
z
M 1159 2969 
Q 1341 3281 1617 3432 
Q 1894 3584 2278 3584 
Q 2916 3584 3314 3078 
Q 3713 2572 3713 1747 
Q 3713 922 3314 415 
Q 2916 -91 2278 -91 
Q 1894 -91 1617 61 
Q 1341 213 1159 525 
L 1159 0 
L 581 0 
L 581 4863 
L 1159 4863 
L 1159 2969 
z
" transform="scale(0.015625)"/>
      <path id="DejaVuSans-6c" d="M 603 4863 
L 1178 4863 
L 1178 0 
L 603 0 
L 603 4863 
z
" transform="scale(0.015625)"/>
      <path id="DejaVuSans-65" d="M 3597 1894 
L 3597 1613 
L 953 1613 
Q 991 1019 1311 708 
Q 1631 397 2203 397 
Q 2534 397 2845 478 
Q 3156 559 3463 722 
L 3463 178 
Q 3153 47 2828 -22 
Q 2503 -91 2169 -91 
Q 1331 -91 842 396 
Q 353 884 353 1716 
Q 353 2575 817 3079 
Q 1281 3584 2069 3584 
Q 2775 3584 3186 3129 
Q 3597 2675 3597 1894 
z
M 3022 2063 
Q 3016 2534 2758 2815 
Q 2500 3097 2075 3097 
Q 1594 3097 1305 2825 
Q 1016 2553 972 2059 
L 3022 2063 
z
" transform="scale(0.015625)"/>
     </defs>
     <use xlink:href="#DejaVuSans-74"/>
     <use xlink:href="#DejaVuSans-61" transform="translate(39.208984 0)"/>
     <use xlink:href="#DejaVuSans-62" transform="translate(100.488281 0)"/>
     <use xlink:href="#DejaVuSans-6c" transform="translate(163.964844 0)"/>
     <use xlink:href="#DejaVuSans-65" transform="translate(191.748047 0)"/>
    </g>
   </g>
   <g id="text_5">
    <!-- server -->
    <g style="fill: #222222" transform="translate(68.552511 156.037272) scale(0.11 -0.11)">
     <defs>
      <path id="DejaVuSans-73" d="M 2834 3397 
L 2834 2853 
Q 2591 2978 2328 3040 
Q 2066 3103 1784 3103 
Q 1356 3103 1142 2972 
Q 928 2841 928 2578 
Q 928 2378 1081 2264 
Q 1234 2150 1697 2047 
L 1894 2003 
Q 2506 1872 2764 1633 
Q 3022 1394 3022 966 
Q 3022 478 2636 193 
Q 2250 -91 1575 -91 
Q 1294 -91 989 -36 
Q 684 19 347 128 
L 347 722 
Q 666 556 975 473 
Q 1284 391 1588 391 
Q 1994 391 2212 530 
Q 2431 669 2431 922 
Q 2431 1156 2273 1281 
Q 2116 1406 1581 1522 
L 1381 1569 
Q 847 1681 609 1914 
Q 372 2147 372 2553 
Q 372 3047 722 3315 
Q 1072 3584 1716 3584 
Q 2034 3584 2315 3537 
Q 2597 3491 2834 3397 
z
" transform="scale(0.015625)"/>
      <path id="DejaVuSans-72" d="M 2631 2963 
Q 2534 3019 2420 3045 
Q 2306 3072 2169 3072 
Q 1681 3072 1420 2755 
Q 1159 2438 1159 1844 
L 1159 0 
L 581 0 
L 581 3500 
L 1159 3500 
L 1159 2956 
Q 1341 3275 1631 3429 
Q 1922 3584 2338 3584 
Q 2397 3584 2469 3576 
Q 2541 3569 2628 3553 
L 2631 2963 
z
" transform="scale(0.015625)"/>
      <path id="DejaVuSans-76" d="M 191 3500 
L 800 3500 
L 1894 563 
L 2988 3500 
L 3597 3500 
L 2284 0 
L 1503 0 
L 191 3500 
z
" transform="scale(0.015625)"/>
     </defs>
     <use xlink:href="#DejaVuSans-73"/>
     <use xlink:href="#DejaVuSans-65" transform="translate(52.099609 0)"/>
     <use xlink:href="#DejaVuSans-72" transform="translate(113.623047 0)"/>
     <use xlink:href="#DejaVuSans-76" transform="translate(154.736328 0)"/>
     <use xlink:href="#DejaVuSans-65" transform="translate(213.916016 0)"/>
     <use xlink:href="#DejaVuSans-72" transform="translate(275.439453 0)"/>
    </g>
   </g>
   <g id="text_6">
    <!-- screen -->
    <g style="fill: #222222" transform="translate(68.552511 195.916404) scale(0.11 -0.11)">
     <defs>
      <path id="DejaVuSans-63" d="M 3122 3366 
L 3122 2828 
Q 2878 2963 2633 3030 
Q 2388 3097 2138 3097 
Q 1578 3097 1268 2742 
Q 959 2388 959 1747 
Q 959 1106 1268 751 
Q 1578 397 2138 397 
Q 2388 397 2633 464 
Q 2878 531 3122 666 
L 3122 134 
Q 2881 22 2623 -34 
Q 2366 -91 2075 -91 
Q 1284 -91 818 406 
Q 353 903 353 1747 
Q 353 2603 823 3093 
Q 1294 3584 2113 3584 
Q 2378 3584 2631 3529 
Q 2884 3475 3122 3366 
z
" transform="scale(0.015625)"/>
      <path id="DejaVuSans-6e" d="M 3513 2113 
L 3513 0 
L 2938 0 
L 2938 2094 
Q 2938 2591 2744 2837 
Q 2550 3084 2163 3084 
Q 1697 3084 1428 2787 
Q 1159 2491 1159 1978 
L 1159 0 
L 581 0 
L 581 3500 
L 1159 3500 
L 1159 2956 
Q 1366 3272 1645 3428 
Q 1925 3584 2291 3584 
Q 2894 3584 3203 3211 
Q 3513 2838 3513 2113 
z
" transform="scale(0.015625)"/>
     </defs>
     <use xlink:href="#DejaVuSans-73"/>
     <use xlink:href="#DejaVuSans-63" transform="translate(52.099609 0)"/>
     <use xlink:href="#DejaVuSans-72" transform="translate(107.080078 0)"/>
     <use xlink:href="#DejaVuSans-65" transform="translate(145.943359 0)"/>
     <use xlink:href="#DejaVuSans-65" transform="translate(207.466797 0)"/>
     <use xlink:href="#DejaVuSans-6e" transform="translate(268.990234 0)"/>
    </g>
   </g>
   <g id="text_7">
    <!-- mattress (fall point) -->
    <g style="fill: #222222" transform="translate(68.552511 235.795536) scale(0.11 -0.11)">
     <defs>
      <path id="DejaVuSans-28" d="M 1984 4856 
Q 1566 4138 1362 3434 
Q 1159 2731 1159 2009 
Q 1159 1288 1364 580 
Q 1569 -128 1984 -844 
L 1484 -844 
Q 1016 -109 783 600 
Q 550 1309 550 2009 
Q 550 2706 781 3412 
Q 1013 4119 1484 4856 
L 1984 4856 
z
" transform="scale(0.015625)"/>
      <path id="DejaVuSans-66" d="M 2375 4863 
L 2375 4384 
L 1825 4384 
Q 1516 4384 1395 4259 
Q 1275 4134 1275 3809 
L 1275 3500 
L 2222 3500 
L 2222 3053 
L 1275 3053 
L 1275 0 
L 697 0 
L 697 3053 
L 147 3053 
L 147 3500 
L 697 3500 
L 697 3744 
Q 697 4328 969 4595 
Q 1241 4863 1831 4863 
L 2375 4863 
z
" transform="scale(0.015625)"/>
      <path id="DejaVuSans-70" d="M 1159 525 
L 1159 -1331 
L 581 -1331 
L 581 3500 
L 1159 3500 
L 1159 2969 
Q 1341 3281 1617 3432 
Q 1894 3584 2278 3584 
Q 2916 3584 3314 3078 
Q 3713 2572 3713 1747 
Q 3713 922 3314 415 
Q 2916 -91 2278 -91 
Q 1894 -91 1617 61 
Q 1341 213 1159 525 
z
M 3116 1747 
Q 3116 2381 2855 2742 
Q 2594 3103 2138 3103 
Q 1681 3103 1420 2742 
Q 1159 2381 1159 1747 
Q 1159 1113 1420 752 
Q 1681 391 2138 391 
Q 2594 391 2855 752 
Q 3116 1113 3116 1747 
z
" transform="scale(0.015625)"/>
      <path id="DejaVuSans-6f" d="M 1959 3097 
Q 1497 3097 1228 2736 
Q 959 2375 959 1747 
Q 959 1119 1226 758 
Q 1494 397 1959 397 
Q 2419 397 2687 759 
Q 2956 1122 2956 1747 
Q 2956 2369 2687 2733 
Q 2419 3097 1959 3097 
z
M 1959 3584 
Q 2709 3584 3137 3096 
Q 3566 2609 3566 1747 
Q 3566 888 3137 398 
Q 2709 -91 1959 -91 
Q 1206 -91 779 398 
Q 353 888 353 1747 
Q 353 2609 779 3096 
Q 1206 3584 1959 3584 
z
" transform="scale(0.015625)"/>
      <path id="DejaVuSans-69" d="M 603 3500 
L 1178 3500 
L 1178 0 
L 603 0 
L 603 3500 
z
M 603 4863 
L 1178 4863 
L 1178 4134 
L 603 4134 
L 603 4863 
z
" transform="scale(0.015625)"/>
      <path id="DejaVuSans-29" d="M 513 4856 
L 1013 4856 
Q 1481 4119 1714 3412 
Q 1947 2706 1947 2009 
Q 1947 1309 1714 600 
Q 1481 -109 1013 -844 
L 513 -844 
Q 928 -128 1133 580 
Q 1338 1288 1338 2009 
Q 1338 2731 1133 3434 
Q 928 4138 513 4856 
z
" transform="scale(0.015625)"/>
     </defs>
     <use xlink:href="#DejaVuSans-6d"/>
     <use xlink:href="#DejaVuSans-61" transform="translate(97.412109 0)"/>
     <use xlink:href="#DejaVuSans-74" transform="translate(158.691406 0)"/>
     <use xlink:href="#DejaVuSans-74" transform="translate(197.900391 0)"/>
     <use xlink:href="#DejaVuSans-72" transform="translate(237.109375 0)"/>
     <use xlink:href="#DejaVuSans-65" transform="translate(275.972656 0)"/>
     <use xlink:href="#DejaVuSans-73" transform="translate(337.496094 0)"/>
     <use xlink:href="#DejaVuSans-73" transform="translate(389.595703 0)"/>
     <use xlink:href="#DejaVuSans-20" transform="translate(441.695312 0)"/>
     <use xlink:href="#DejaVuSans-28" transform="translate(473.482422 0)"/>
     <use xlink:href="#DejaVuSans-66" transform="translate(512.496094 0)"/>
     <use xlink:href="#DejaVuSans-61" transform="translate(547.701172 0)"/>
     <use xlink:href="#DejaVuSans-6c" transform="translate(608.980469 0)"/>
     <use xlink:href="#DejaVuSans-6c" transform="translate(636.763672 0)"/>
     <use xlink:href="#DejaVuSans-20" transform="translate(664.546875 0)"/>
     <use xlink:href="#DejaVuSans-70" transform="translate(696.333984 0)"/>
     <use xlink:href="#DejaVuSans-6f" transform="translate(759.810547 0)"/>
     <use xlink:href="#DejaVuSans-69" transform="translate(820.992188 0)"/>
     <use xlink:href="#DejaVuSans-6e" transform="translate(848.775391 0)"/>
     <use xlink:href="#DejaVuSans-74" transform="translate(912.154297 0)"/>
     <use xlink:href="#DejaVuSans-29" transform="translate(951.363281 0)"/>
    </g>
   </g>
   <g id="text_8">
    <!-- chair -->
    <g style="fill: #222222" transform="translate(68.552511 275.674669) scale(0.11 -0.11)">
     <defs>
      <path id="DejaVuSans-68" d="M 3513 2113 
L 3513 0 
L 2938 0 
L 2938 2094 
Q 2938 2591 2744 2837 
Q 2550 3084 2163 3084 
Q 1697 3084 1428 2787 
Q 1159 2491 1159 1978 
L 1159 0 
L 581 0 
L 581 4863 
L 1159 4863 
L 1159 2956 
Q 1366 3272 1645 3428 
Q 1925 3584 2291 3584 
Q 2894 3584 3203 3211 
Q 3513 2838 3513 2113 
z
" transform="scale(0.015625)"/>
     </defs>
     <use xlink:href="#DejaVuSans-63"/>
     <use xlink:href="#DejaVuSans-68" transform="translate(54.980469 0)"/>
     <use xlink:href="#DejaVuSans-61" transform="translate(118.359375 0)"/>
     <use xlink:href="#DejaVuSans-69" transform="translate(179.638672 0)"/>
     <use xlink:href="#DejaVuSans-72" transform="translate(207.421875 0)"/>
    </g>
   </g>
   <g id="text_9">
    <!-- window (glass) -->
    <g style="fill: #222222" transform="translate(68.552511 315.553801) scale(0.11 -0.11)">
     <defs>
      <path id="DejaVuSans-77" d="M 269 3500 
L 844 3500 
L 1563 769 
L 2278 3500 
L 2956 3500 
L 3675 769 
L 4391 3500 
L 4966 3500 
L 4050 0 
L 3372 0 
L 2619 2869 
L 1863 0 
L 1184 0 
L 269 3500 
z
" transform="scale(0.015625)"/>
      <path id="DejaVuSans-64" d="M 2906 2969 
L 2906 4863 
L 3481 4863 
L 3481 0 
L 2906 0 
L 2906 525 
Q 2725 213 2448 61 
Q 2172 -91 1784 -91 
Q 1150 -91 751 415 
Q 353 922 353 1747 
Q 353 2572 751 3078 
Q 1150 3584 1784 3584 
Q 2172 3584 2448 3432 
Q 2725 3281 2906 2969 
z
M 947 1747 
Q 947 1113 1208 752 
Q 1469 391 1925 391 
Q 2381 391 2643 752 
Q 2906 1113 2906 1747 
Q 2906 2381 2643 2742 
Q 2381 3103 1925 3103 
Q 1469 3103 1208 2742 
Q 947 2381 947 1747 
z
" transform="scale(0.015625)"/>
      <path id="DejaVuSans-67" d="M 2906 1791 
Q 2906 2416 2648 2759 
Q 2391 3103 1925 3103 
Q 1463 3103 1205 2759 
Q 947 2416 947 1791 
Q 947 1169 1205 825 
Q 1463 481 1925 481 
Q 2391 481 2648 825 
Q 2906 1169 2906 1791 
z
M 3481 434 
Q 3481 -459 3084 -895 
Q 2688 -1331 1869 -1331 
Q 1566 -1331 1297 -1286 
Q 1028 -1241 775 -1147 
L 775 -588 
Q 1028 -725 1275 -790 
Q 1522 -856 1778 -856 
Q 2344 -856 2625 -561 
Q 2906 -266 2906 331 
L 2906 616 
Q 2728 306 2450 153 
Q 2172 0 1784 0 
Q 1141 0 747 490 
Q 353 981 353 1791 
Q 353 2603 747 3093 
Q 1141 3584 1784 3584 
Q 2172 3584 2450 3431 
Q 2728 3278 2906 2969 
L 2906 3500 
L 3481 3500 
L 3481 434 
z
" transform="scale(0.015625)"/>
     </defs>
     <use xlink:href="#DejaVuSans-77"/>
     <use xlink:href="#DejaVuSans-69" transform="translate(81.787109 0)"/>
     <use xlink:href="#DejaVuSans-6e" transform="translate(109.570312 0)"/>
     <use xlink:href="#DejaVuSans-64" transform="translate(172.949219 0)"/>
     <use xlink:href="#DejaVuSans-6f" transform="translate(236.425781 0)"/>
     <use xlink:href="#DejaVuSans-77" transform="translate(297.607422 0)"/>
     <use xlink:href="#DejaVuSans-20" transform="translate(379.394531 0)"/>
     <use xlink:href="#DejaVuSans-28" transform="translate(411.181641 0)"/>
     <use xlink:href="#DejaVuSans-67" transform="translate(450.195312 0)"/>
     <use xlink:href="#DejaVuSans-6c" transform="translate(513.671875 0)"/>
     <use xlink:href="#DejaVuSans-61" transform="translate(541.455078 0)"/>
     <use xlink:href="#DejaVuSans-73" transform="translate(602.734375 0)"/>
     <use xlink:href="#DejaVuSans-73" transform="translate(654.833984 0)"/>
     <use xlink:href="#DejaVuSans-29" transform="translate(706.933594 0)"/>
    </g>
   </g>
   <g id="text_10">
    <!-- esp32 (TX) — location &amp; orientation -->
    <g style="fill: #222222" transform="translate(68.552511 355.432933) scale(0.11 -0.11)">
     <defs>
      <path id="DejaVuSans-32" d="M 1228 531 
L 3431 531 
L 3431 0 
L 469 0 
L 469 531 
Q 828 903 1448 1529 
Q 2069 2156 2228 2338 
Q 2531 2678 2651 2914 
Q 2772 3150 2772 3378 
Q 2772 3750 2511 3984 
Q 2250 4219 1831 4219 
Q 1534 4219 1204 4116 
Q 875 4013 500 3803 
L 500 4441 
Q 881 4594 1212 4672 
Q 1544 4750 1819 4750 
Q 2544 4750 2975 4387 
Q 3406 4025 3406 3419 
Q 3406 3131 3298 2873 
Q 3191 2616 2906 2266 
Q 2828 2175 2409 1742 
Q 1991 1309 1228 531 
z
" transform="scale(0.015625)"/>
      <path id="DejaVuSans-54" d="M -19 4666 
L 3928 4666 
L 3928 4134 
L 2272 4134 
L 2272 0 
L 1638 0 
L 1638 4134 
L -19 4134 
L -19 4666 
z
" transform="scale(0.015625)"/>
      <path id="DejaVuSans-58" d="M 403 4666 
L 1081 4666 
L 2241 2931 
L 3406 4666 
L 4084 4666 
L 2584 2425 
L 4184 0 
L 3506 0 
L 2194 1984 
L 872 0 
L 191 0 
L 1856 2491 
L 403 4666 
z
" transform="scale(0.015625)"/>
      <path id="DejaVuSans-2014" d="M 313 1978 
L 6088 1978 
L 6088 1528 
L 313 1528 
L 313 1978 
z
" transform="scale(0.015625)"/>
      <path id="DejaVuSans-26" d="M 1556 2509 
Q 1272 2256 1139 2004 
Q 1006 1753 1006 1478 
Q 1006 1022 1337 719 
Q 1669 416 2169 416 
Q 2466 416 2725 514 
Q 2984 613 3213 813 
L 1556 2509 
z
M 1997 2859 
L 3584 1234 
Q 3769 1513 3872 1830 
Q 3975 2147 3994 2503 
L 4575 2503 
Q 4538 2091 4375 1687 
Q 4213 1284 3922 891 
L 4794 0 
L 4006 0 
L 3559 459 
Q 3234 181 2878 45 
Q 2522 -91 2113 -91 
Q 1359 -91 881 339 
Q 403 769 403 1441 
Q 403 1841 612 2192 
Q 822 2544 1241 2853 
Q 1091 3050 1012 3245 
Q 934 3441 934 3628 
Q 934 4134 1281 4442 
Q 1628 4750 2203 4750 
Q 2463 4750 2720 4694 
Q 2978 4638 3244 4525 
L 3244 3956 
Q 2972 4103 2725 4179 
Q 2478 4256 2266 4256 
Q 1938 4256 1733 4082 
Q 1528 3909 1528 3634 
Q 1528 3475 1620 3314 
Q 1713 3153 1997 2859 
z
" transform="scale(0.015625)"/>
     </defs>
     <use xlink:href="#DejaVuSans-65"/>
     <use xlink:href="#DejaVuSans-73" transform="translate(61.523438 0)"/>
     <use xlink:href="#DejaVuSans-70" transform="translate(113.623047 0)"/>
     <use xlink:href="#DejaVuSans-33" transform="translate(177.099609 0)"/>
     <use xlink:href="#DejaVuSans-32" transform="translate(240.722656 0)"/>
     <use xlink:href="#DejaVuSans-20" transform="translate(304.345703 0)"/>
     <use xlink:href="#DejaVuSans-28" transform="translate(336.132812 0)"/>
     <use xlink:href="#DejaVuSans-54" transform="translate(375.146484 0)"/>
     <use xlink:href="#DejaVuSans-58" transform="translate(436.230469 0)"/>
     <use xlink:href="#DejaVuSans-29" transform="translate(504.736328 0)"/>
     <use xlink:href="#DejaVuSans-20" transform="translate(543.75 0)"/>
     <use xlink:href="#DejaVuSans-2014" transform="translate(575.537109 0)"/>
     <use xlink:href="#DejaVuSans-20" transform="translate(675.537109 0)"/>
     <use xlink:href="#DejaVuSans-6c" transform="translate(707.324219 0)"/>
     <use xlink:href="#DejaVuSans-6f" transform="translate(735.107422 0)"/>
     <use xlink:href="#DejaVuSans-63" transform="translate(796.289062 0)"/>
     <use xlink:href="#DejaVuSans-61" transform="translate(851.269531 0)"/>
     <use xlink:href="#DejaVuSans-74" transform="translate(912.548828 0)"/>
     <use xlink:href="#DejaVuSans-69" transform="translate(951.757812 0)"/>
     <use xlink:href="#DejaVuSans-6f" transform="translate(979.541016 0)"/>
     <use xlink:href="#DejaVuSans-6e" transform="translate(1040.722656 0)"/>
     <use xlink:href="#DejaVuSans-20" transform="translate(1104.101562 0)"/>
     <use xlink:href="#DejaVuSans-26" transform="translate(1135.888672 0)"/>
     <use xlink:href="#DejaVuSans-20" transform="translate(1213.867188 0)"/>
     <use xlink:href="#DejaVuSans-6f" transform="translate(1245.654297 0)"/>
     <use xlink:href="#DejaVuSans-72" transform="translate(1306.835938 0)"/>
     <use xlink:href="#DejaVuSans-69" transform="translate(1347.949219 0)"/>
     <use xlink:href="#DejaVuSans-65" transform="translate(1375.732422 0)"/>
     <use xlink:href="#DejaVuSans-6e" transform="translate(1437.255859 0)"/>
     <use xlink:href="#DejaVuSans-74" transform="translate(1500.634766 0)"/>
     <use xlink:href="#DejaVuSans-61" transform="translate(1539.84375 0)"/>
     <use xlink:href="#DejaVuSans-74" transform="translate(1601.123047 0)"/>
     <use xlink:href="#DejaVuSans-69" transform="translate(1640.332031 0)"/>
     <use xlink:href="#DejaVuSans-6f" transform="translate(1668.115234 0)"/>
     <use xlink:href="#DejaVuSans-6e" transform="translate(1729.296875 0)"/>
    </g>
   </g>
   <g id="text_11">
    <!-- RX + camera — location &amp; orientation -->
    <g style="fill: #222222" transform="translate(68.552511 395.312065) scale(0.11 -0.11)">
     <defs>
      <path id="DejaVuSans-52" d="M 2841 2188 
Q 3044 2119 3236 1894 
Q 3428 1669 3622 1275 
L 4263 0 
L 3584 0 
L 2988 1197 
Q 2756 1666 2539 1819 
Q 2322 1972 1947 1972 
L 1259 1972 
L 1259 0 
L 628 0 
L 628 4666 
L 2053 4666 
Q 2853 4666 3247 4331 
Q 3641 3997 3641 3322 
Q 3641 2881 3436 2590 
Q 3231 2300 2841 2188 
z
M 1259 4147 
L 1259 2491 
L 2053 2491 
Q 2509 2491 2742 2702 
Q 2975 2913 2975 3322 
Q 2975 3731 2742 3939 
Q 2509 4147 2053 4147 
L 1259 4147 
z
" transform="scale(0.015625)"/>
      <path id="DejaVuSans-2b" d="M 2944 4013 
L 2944 2272 
L 4684 2272 
L 4684 1741 
L 2944 1741 
L 2944 0 
L 2419 0 
L 2419 1741 
L 678 1741 
L 678 2272 
L 2419 2272 
L 2419 4013 
L 2944 4013 
z
" transform="scale(0.015625)"/>
     </defs>
     <use xlink:href="#DejaVuSans-52"/>
     <use xlink:href="#DejaVuSans-58" transform="translate(69.482422 0)"/>
     <use xlink:href="#DejaVuSans-20" transform="translate(137.988281 0)"/>
     <use xlink:href="#DejaVuSans-2b" transform="translate(169.775391 0)"/>
     <use xlink:href="#DejaVuSans-20" transform="translate(253.564453 0)"/>
     <use xlink:href="#DejaVuSans-63" transform="translate(285.351562 0)"/>
     <use xlink:href="#DejaVuSans-61" transform="translate(340.332031 0)"/>
     <use xlink:href="#DejaVuSans-6d" transform="translate(401.611328 0)"/>
     <use xlink:href="#DejaVuSans-65" transform="translate(499.023438 0)"/>
     <use xlink:href="#DejaVuSans-72" transform="translate(560.546875 0)"/>
     <use xlink:href="#DejaVuSans-61" transform="translate(601.660156 0)"/>
     <use xlink:href="#DejaVuSans-20" transform="translate(662.939453 0)"/>
     <use xlink:href="#DejaVuSans-2014" transform="translate(694.726562 0)"/>
     <use xlink:href="#DejaVuSans-20" transform="translate(794.726562 0)"/>
     <use xlink:href="#DejaVuSans-6c" transform="translate(826.513672 0)"/>
     <use xlink:href="#DejaVuSans-6f" transform="translate(854.296875 0)"/>
     <use xlink:href="#DejaVuSans-63" transform="translate(915.478516 0)"/>
     <use xlink:href="#DejaVuSans-61" transform="translate(970.458984 0)"/>
     <use xlink:href="#DejaVuSans-74" transform="translate(1031.738281 0)"/>
     <use xlink:href="#DejaVuSans-69" transform="translate(1070.947266 0)"/>
     <use xlink:href="#DejaVuSans-6f" transform="translate(1098.730469 0)"/>
     <use xlink:href="#DejaVuSans-6e" transform="translate(1159.912109 0)"/>
     <use xlink:href="#DejaVuSans-20" transform="translate(1223.291016 0)"/>
     <use xlink:href="#DejaVuSans-26" transform="translate(1255.078125 0)"/>
     <use xlink:href="#DejaVuSans-20" transform="translate(1333.056641 0)"/>
     <use xlink:href="#DejaVuSans-6f" transform="translate(1364.84375 0)"/>
     <use xlink:href="#DejaVuSans-72" transform="translate(1426.025391 0)"/>
     <use xlink:href="#DejaVuSans-69" transform="translate(1467.138672 0)"/>
     <use xlink:href="#DejaVuSans-65" transform="translate(1494.921875 0)"/>
     <use xlink:href="#DejaVuSans-6e" transform="translate(1556.445312 0)"/>
     <use xlink:href="#DejaVuSans-74" transform="translate(1619.824219 0)"/>
     <use xlink:href="#DejaVuSans-61" transform="translate(1659.033203 0)"/>
     <use xlink:href="#DejaVuSans-74" transform="translate(1720.3125 0)"/>
     <use xlink:href="#DejaVuSans-69" transform="translate(1759.521484 0)"/>
     <use xlink:href="#DejaVuSans-6f" transform="translate(1787.304688 0)"/>
     <use xlink:href="#DejaVuSans-6e" transform="translate(1848.486328 0)"/>
    </g>
   </g>
   <g id="text_12">
    <!-- Measurement room layout -->
    <g style="fill: #222222" transform="translate(143.09606 18.597656) scale(0.15 -0.15)">
     <defs>
      <path id="DejaVuSans-Bold-4d" d="M 588 4666 
L 2119 4666 
L 3181 2169 
L 4250 4666 
L 5778 4666 
L 5778 0 
L 4641 0 
L 4641 3413 
L 3566 897 
L 2803 897 
L 1728 3413 
L 1728 0 
L 588 0 
L 588 4666 
z
" transform="scale(0.015625)"/>
      <path id="DejaVuSans-Bold-61" d="M 2106 1575 
Q 1756 1575 1579 1456 
Q 1403 1338 1403 1106 
Q 1403 894 1545 773 
Q 1688 653 1941 653 
Q 2256 653 2472 879 
Q 2688 1106 2688 1447 
L 2688 1575 
L 2106 1575 
z
M 3816 1997 
L 3816 0 
L 2688 0 
L 2688 519 
Q 2463 200 2181 54 
Q 1900 -91 1497 -91 
Q 953 -91 614 226 
Q 275 544 275 1050 
Q 275 1666 698 1953 
Q 1122 2241 2028 2241 
L 2688 2241 
L 2688 2328 
Q 2688 2594 2478 2717 
Q 2269 2841 1825 2841 
Q 1466 2841 1156 2769 
Q 847 2697 581 2553 
L 581 3406 
Q 941 3494 1303 3539 
Q 1666 3584 2028 3584 
Q 2975 3584 3395 3211 
Q 3816 2838 3816 1997 
z
" transform="scale(0.015625)"/>
      <path id="DejaVuSans-Bold-73" d="M 3272 3391 
L 3272 2541 
Q 2913 2691 2578 2766 
Q 2244 2841 1947 2841 
Q 1628 2841 1473 2761 
Q 1319 2681 1319 2516 
Q 1319 2381 1436 2309 
Q 1553 2238 1856 2203 
L 2053 2175 
Q 2913 2066 3209 1816 
Q 3506 1566 3506 1031 
Q 3506 472 3093 190 
Q 2681 -91 1863 -91 
Q 1516 -91 1145 -36 
Q 775 19 384 128 
L 384 978 
Q 719 816 1070 734 
Q 1422 653 1784 653 
Q 2113 653 2278 743 
Q 2444 834 2444 1013 
Q 2444 1163 2330 1236 
Q 2216 1309 1875 1350 
L 1678 1375 
Q 931 1469 631 1722 
Q 331 1975 331 2491 
Q 331 3047 712 3315 
Q 1094 3584 1881 3584 
Q 2191 3584 2531 3537 
Q 2872 3491 3272 3391 
z
" transform="scale(0.015625)"/>
      <path id="DejaVuSans-Bold-75" d="M 500 1363 
L 500 3500 
L 1625 3500 
L 1625 3150 
Q 1625 2866 1622 2436 
Q 1619 2006 1619 1863 
Q 1619 1441 1641 1255 
Q 1663 1069 1716 984 
Q 1784 875 1895 815 
Q 2006 756 2150 756 
Q 2500 756 2700 1025 
Q 2900 1294 2900 1772 
L 2900 3500 
L 4019 3500 
L 4019 0 
L 2900 0 
L 2900 506 
Q 2647 200 2364 54 
Q 2081 -91 1741 -91 
Q 1134 -91 817 281 
Q 500 653 500 1363 
z
" transform="scale(0.015625)"/>
      <path id="DejaVuSans-Bold-72" d="M 3138 2547 
Q 2991 2616 2845 2648 
Q 2700 2681 2553 2681 
Q 2122 2681 1889 2404 
Q 1656 2128 1656 1613 
L 1656 0 
L 538 0 
L 538 3500 
L 1656 3500 
L 1656 2925 
Q 1872 3269 2151 3426 
Q 2431 3584 2822 3584 
Q 2878 3584 2943 3579 
Q 3009 3575 3134 3559 
L 3138 2547 
z
" transform="scale(0.015625)"/>
      <path id="DejaVuSans-Bold-6d" d="M 3781 2919 
Q 3994 3244 4286 3414 
Q 4578 3584 4928 3584 
Q 5531 3584 5847 3212 
Q 6163 2841 6163 2131 
L 6163 0 
L 5038 0 
L 5038 1825 
Q 5041 1866 5042 1909 
Q 5044 1953 5044 2034 
Q 5044 2406 4934 2573 
Q 4825 2741 4581 2741 
Q 4263 2741 4089 2478 
Q 3916 2216 3909 1719 
L 3909 0 
L 2784 0 
L 2784 1825 
Q 2784 2406 2684 2573 
Q 2584 2741 2328 2741 
Q 2006 2741 1831 2477 
Q 1656 2213 1656 1722 
L 1656 0 
L 531 0 
L 531 3500 
L 1656 3500 
L 1656 2988 
Q 1863 3284 2130 3434 
Q 2397 3584 2719 3584 
Q 3081 3584 3359 3409 
Q 3638 3234 3781 2919 
z
" transform="scale(0.015625)"/>
      <path id="DejaVuSans-Bold-74" d="M 1759 4494 
L 1759 3500 
L 2913 3500 
L 2913 2700 
L 1759 2700 
L 1759 1216 
Q 1759 972 1856 886 
Q 1953 800 2241 800 
L 2816 800 
L 2816 0 
L 1856 0 
Q 1194 0 917 276 
Q 641 553 641 1216 
L 641 2700 
L 84 2700 
L 84 3500 
L 641 3500 
L 641 4494 
L 1759 4494 
z
" transform="scale(0.015625)"/>
      <path id="DejaVuSans-Bold-20" transform="scale(0.015625)"/>
      <path id="DejaVuSans-Bold-6f" d="M 2203 2784 
Q 1831 2784 1636 2517 
Q 1441 2250 1441 1747 
Q 1441 1244 1636 976 
Q 1831 709 2203 709 
Q 2569 709 2762 976 
Q 2956 1244 2956 1747 
Q 2956 2250 2762 2517 
Q 2569 2784 2203 2784 
z
M 2203 3584 
Q 3106 3584 3614 3096 
Q 4122 2609 4122 1747 
Q 4122 884 3614 396 
Q 3106 -91 2203 -91 
Q 1297 -91 786 396 
Q 275 884 275 1747 
Q 275 2609 786 3096 
Q 1297 3584 2203 3584 
z
" transform="scale(0.015625)"/>
      <path id="DejaVuSans-Bold-6c" d="M 538 4863 
L 1656 4863 
L 1656 0 
L 538 0 
L 538 4863 
z
" transform="scale(0.015625)"/>
      <path id="DejaVuSans-Bold-79" d="M 78 3500 
L 1197 3500 
L 2138 1125 
L 2938 3500 
L 4056 3500 
L 2584 -331 
Q 2363 -916 2067 -1148 
Q 1772 -1381 1288 -1381 
L 641 -1381 
L 641 -647 
L 991 -647 
Q 1275 -647 1404 -556 
Q 1534 -466 1606 -231 
L 1638 -134 
L 78 3500 
z
" transform="scale(0.015625)"/>
     </defs>
     <use xlink:href="#DejaVuSans-Bold-4d"/>
     <use xlink:href="#DejaVuSans-Bold-65" transform="translate(99.511719 0)"/>
     <use xlink:href="#DejaVuSans-Bold-61" transform="translate(167.333984 0)"/>
     <use xlink:href="#DejaVuSans-Bold-73" transform="translate(234.814453 0)"/>
     <use xlink:href="#DejaVuSans-Bold-75" transform="translate(294.335938 0)"/>
     <use xlink:href="#DejaVuSans-Bold-72" transform="translate(365.527344 0)"/>
     <use xlink:href="#DejaVuSans-Bold-65" transform="translate(414.84375 0)"/>
     <use xlink:href="#DejaVuSans-Bold-6d" transform="translate(482.666016 0)"/>
     <use xlink:href="#DejaVuSans-Bold-65" transform="translate(586.865234 0)"/>
     <use xlink:href="#DejaVuSans-Bold-6e" transform="translate(654.6875 0)"/>
     <use xlink:href="#DejaVuSans-Bold-74" transform="translate(725.878906 0)"/>
     <use xlink:href="#DejaVuSans-Bold-20" transform="translate(773.681641 0)"/>
     <use xlink:href="#DejaVuSans-Bold-72" transform="translate(808.496094 0)"/>
     <use xlink:href="#DejaVuSans-Bold-6f" transform="translate(857.8125 0)"/>
     <use xlink:href="#DejaVuSans-Bold-6f" transform="translate(926.513672 0)"/>
     <use xlink:href="#DejaVuSans-Bold-6d" transform="translate(995.214844 0)"/>
     <use xlink:href="#DejaVuSans-Bold-20" transform="translate(1099.414062 0)"/>
     <use xlink:href="#DejaVuSans-Bold-6c" transform="translate(1134.228516 0)"/>
     <use xlink:href="#DejaVuSans-Bold-61" transform="translate(1168.505859 0)"/>
     <use xlink:href="#DejaVuSans-Bold-79" transform="translate(1232.861328 0)"/>
     <use xlink:href="#DejaVuSans-Bold-6f" transform="translate(1298.046875 0)"/>
     <use xlink:href="#DejaVuSans-Bold-75" transform="translate(1366.748047 0)"/>
     <use xlink:href="#DejaVuSans-Bold-74" transform="translate(1437.939453 0)"/>
    </g>
   </g>
   <g id="patch_11">
    <path d="M 294.789896 116.957359 
L 375.315067 116.957359 
L 375.315067 156.836491 
L 294.789896 156.836491 
z
" clip-path="url(#pf6275e5142)" style="fill: #a9d08e; stroke: #5e8e3e; stroke-width: 1.4; stroke-linejoin: miter"/>
   </g>
   <g id="patch_12">
    <path d="M 262.579828 278.007701 
L 339.270466 278.007701 
L 339.270466 324.022084 
L 262.579828 324.022084 
z
" clip-path="url(#pf6275e5142)" style="fill: #f4b183; stroke: #c55a11; stroke-width: 1.6; stroke-linejoin: miter"/>
   </g>
   <g id="patch_13">
    <path d="M 279.451768 469.734298 
L 359.976939 469.734298 
L 359.976939 505.011992 
L 279.451768 505.011992 
z
" clip-path="url(#pf6275e5142)" style="fill: #a9d08e; stroke: #5e8e3e; stroke-width: 1.4; stroke-linejoin: miter"/>
   </g>
   <g id="patch_14">
    <path d="M 382.984131 519.583213 
C 382.984131 507.38412 387.83537 495.672192 396.461431 487.046131 
C 405.087493 478.42007 416.799421 473.56883 428.998514 473.56883 
" clip-path="url(#pf6275e5142)" style="fill: none; stroke: #c55a11; stroke-width: 1.6; stroke-linejoin: miter"/>
   </g>
   <g id="line2d_8">
    <path d="M 382.984131 519.583213 
L 428.998514 519.583213 
" clip-path="url(#pf6275e5142)" style="fill: none; stroke: #c55a11; stroke-width: 1.6; stroke-linecap: square"/>
   </g>
   <g id="patch_15">
    <path d="M 185.889189 100.852325 
C 188.126434 100.852325 190.272349 101.741192 191.85432 103.323163 
C 193.436292 104.905135 194.325159 107.05105 194.325159 109.288295 
C 194.325159 111.525541 193.436292 113.671455 191.85432 115.253427 
C 190.272349 116.835398 188.126434 117.724265 185.889189 117.724265 
C 183.651943 117.724265 181.506028 116.835398 179.924057 115.253427 
C 178.342085 113.671455 177.453218 111.525541 177.453218 109.288295 
C 177.453218 107.05105 178.342085 104.905135 179.924057 103.323163 
C 181.506028 101.741192 183.651943 100.852325 185.889189 100.852325 
z
" clip-path="url(#pf6275e5142)" style="fill: #bf8f2e; stroke: #7f5f1e; stroke-width: 1.2; stroke-linejoin: miter"/>
   </g>
   <g id="patch_16">
    <path d="M 185.889189 125.393329 
C 188.126434 125.393329 190.272349 126.282196 191.85432 127.864168 
C 193.436292 129.446139 194.325159 131.592054 194.325159 133.8293 
C 194.325159 136.066545 193.436292 138.21246 191.85432 139.794431 
C 190.272349 141.376403 188.126434 142.26527 185.889189 142.26527 
C 183.651943 142.26527 181.506028 141.376403 179.924057 139.794431 
C 178.342085 138.21246 177.453218 136.066545 177.453218 133.8293 
C 177.453218 131.592054 178.342085 129.446139 179.924057 127.864168 
C 181.506028 126.282196 183.651943 125.393329 185.889189 125.393329 
z
" clip-path="url(#pf6275e5142)" style="fill: #bf8f2e; stroke: #7f5f1e; stroke-width: 1.2; stroke-linejoin: miter"/>
   </g>
   <g id="patch_17">
    <path d="M 218.099257 103.153044 
L 244.174074 103.153044 
L 244.174074 126.160236 
L 218.099257 126.160236 
z
" clip-path="url(#pf6275e5142)" style="fill: #808080; stroke: #4d4d4d; stroke-linejoin: miter"/>
   </g>
   <g id="patch_18">
    <path d="M 279.451768 95.48398 
L 352.307875 95.48398 
L 352.307875 107.754482 
L 279.451768 107.754482 
z
" clip-path="url(#pf6275e5142)" style="fill: url(#hd6b99be8d1); stroke: #c9a227; stroke-width: 1.6; stroke-linejoin: miter"/>
   </g>
   <g id="patch_19">
    <path d="M 410.592761 235.060943 
C 412.830006 235.060943 414.975921 235.94981 416.557892 237.531781 
C 418.139864 239.113753 419.028731 241.259668 419.028731 243.496913 
C 419.028731 245.734159 418.139864 247.880074 416.557892 249.462045 
C 414.975921 251.044016 412.830006 251.932884 410.592761 251.932884 
C 408.355515 251.932884 406.2096 251.044016 404.627629 249.462045 
C 403.045657 247.880074 402.15679 245.734159 402.15679 243.496913 
C 402.15679 241.259668 403.045657 239.113753 404.627629 237.531781 
C 406.2096 235.94981 408.355515 235.060943 410.592761 235.060943 
z
" clip-path="url(#pf6275e5142)" style="fill: #bf8f2e; stroke: #7f5f1e; stroke-width: 1.2; stroke-linejoin: miter"/>
   </g>
   <g id="patch_20">
    <path d="M 410.592761 284.909858 
C 412.830006 284.909858 414.975921 285.798725 416.557892 287.380697 
C 418.139864 288.962668 419.028731 291.108583 419.028731 293.345829 
C 419.028731 295.583074 418.139864 297.728989 416.557892 299.31096 
C 414.975921 300.892932 412.830006 301.781799 410.592761 301.781799 
C 408.355515 301.781799 406.2096 300.892932 404.627629 299.31096 
C 403.045657 297.728989 402.15679 295.583074 402.15679 293.345829 
C 402.15679 291.108583 403.045657 288.962668 404.627629 287.380697 
C 406.2096 285.798725 408.355515 284.909858 410.592761 284.909858 
z
" clip-path="url(#pf6275e5142)" style="fill: #bf8f2e; stroke: #7f5f1e; stroke-width: 1.2; stroke-linejoin: miter"/>
   </g>
   <g id="patch_21">
    <path d="M 410.592761 353.931433 
C 412.830006 353.931433 414.975921 354.8203 416.557892 356.402272 
C 418.139864 357.984243 419.028731 360.130158 419.028731 362.367404 
C 419.028731 364.604649 418.139864 366.750564 416.557892 368.332535 
C 414.975921 369.914507 412.830006 370.803374 410.592761 370.803374 
C 408.355515 370.803374 406.2096 369.914507 404.627629 368.332535 
C 403.045657 366.750564 402.15679 364.604649 402.15679 362.367404 
C 402.15679 360.130158 403.045657 357.984243 404.627629 356.402272 
C 406.2096 354.8203 408.355515 353.931433 410.592761 353.931433 
z
" clip-path="url(#pf6275e5142)" style="fill: #bf8f2e; stroke: #7f5f1e; stroke-width: 1.2; stroke-linejoin: miter"/>
   </g>
   <g id="patch_22">
    <path d="M 410.592761 407.61488 
C 412.830006 407.61488 414.975921 408.503748 416.557892 410.085719 
C 418.139864 411.66769 419.028731 413.813605 419.028731 416.050851 
C 419.028731 418.288096 418.139864 420.434011 416.557892 422.015983 
C 414.975921 423.597954 412.830006 424.486821 410.592761 424.486821 
C 408.355515 424.486821 406.2096 423.597954 404.627629 422.015983 
C 403.045657 420.434011 402.15679 418.288096 402.15679 416.050851 
C 402.15679 413.813605 403.045657 411.66769 404.627629 410.085719 
C 406.2096 408.503748 408.355515 407.61488 410.592761 407.61488 
z
" clip-path="url(#pf6275e5142)" style="fill: #bf8f2e; stroke: #7f5f1e; stroke-width: 1.2; stroke-linejoin: miter"/>
   </g>
   <g id="patch_23">
    <path d="M 265.647453 455.163077 
C 267.884699 455.163077 270.030613 456.051944 271.612585 457.633915 
C 273.194556 459.215887 274.083423 461.361801 274.083423 463.599047 
C 274.083423 465.836292 273.194556 467.982207 271.612585 469.564179 
C 270.030613 471.14615 267.884699 472.035017 265.647453 472.035017 
C 263.410208 472.035017 261.264293 471.14615 259.682321 469.564179 
C 258.10035 467.982207 257.211483 465.836292 257.211483 463.599047 
C 257.211483 461.361801 258.10035 459.215887 259.682321 457.633915 
C 261.264293 456.051944 263.410208 455.163077 265.647453 455.163077 
z
" clip-path="url(#pf6275e5142)" style="fill: #bf8f2e; stroke: #7f5f1e; stroke-width: 1.2; stroke-linejoin: miter"/>
   </g>
   <g id="patch_24">
    <path d="M 294.789896 455.163077 
C 297.027141 455.163077 299.173056 456.051944 300.755028 457.633915 
C 302.336999 459.215887 303.225866 461.361801 303.225866 463.599047 
C 303.225866 465.836292 302.336999 467.982207 300.755028 469.564179 
C 299.173056 471.14615 297.027141 472.035017 294.789896 472.035017 
C 292.55265 472.035017 290.406736 471.14615 288.824764 469.564179 
C 287.242793 467.982207 286.353926 465.836292 286.353926 463.599047 
C 286.353926 461.361801 287.242793 459.215887 288.824764 457.633915 
C 290.406736 456.051944 292.55265 455.163077 294.789896 455.163077 
z
" clip-path="url(#pf6275e5142)" style="fill: #bf8f2e; stroke: #7f5f1e; stroke-width: 1.2; stroke-linejoin: miter"/>
   </g>
   <g id="patch_25">
    <path d="M 256.444576 479.704081 
C 258.681822 479.704081 260.827737 480.592948 262.409708 482.17492 
C 263.99168 483.756891 264.880547 485.902806 264.880547 488.140051 
C 264.880547 490.377297 263.99168 492.523212 262.409708 494.105183 
C 260.827737 495.687155 258.681822 496.576022 256.444576 496.576022 
C 254.207331 496.576022 252.061416 495.687155 250.479445 494.105183 
C 248.897473 492.523212 248.008606 490.377297 248.008606 488.140051 
C 248.008606 485.902806 248.897473 483.756891 250.479445 482.17492 
C 252.061416 480.592948 254.207331 479.704081 256.444576 479.704081 
z
" clip-path="url(#pf6275e5142)" style="fill: #bf8f2e; stroke: #7f5f1e; stroke-width: 1.2; stroke-linejoin: miter"/>
   </g>
   <g id="patch_26">
    <path d="M 369.946722 479.704081 
C 372.183967 479.704081 374.329882 480.592948 375.911854 482.17492 
C 377.493825 483.756891 378.382692 485.902806 378.382692 488.140051 
C 378.382692 490.377297 377.493825 492.523212 375.911854 494.105183 
C 374.329882 495.687155 372.183967 496.576022 369.946722 496.576022 
C 367.709477 496.576022 365.563562 495.687155 363.98159 494.105183 
C 362.399619 492.523212 361.510752 490.377297 361.510752 488.140051 
C 361.510752 485.902806 362.399619 483.756891 363.98159 482.17492 
C 365.563562 480.592948 367.709477 479.704081 369.946722 479.704081 
z
" clip-path="url(#pf6275e5142)" style="fill: #bf8f2e; stroke: #7f5f1e; stroke-width: 1.2; stroke-linejoin: miter"/>
   </g>
   <g id="patch_27">
    <path d="M 33.274817 264.203386 
C 35.512063 264.203386 37.657978 265.092253 39.239949 266.674224 
C 40.82192 268.256196 41.710788 270.402111 41.710788 272.639356 
C 41.710788 274.876601 40.82192 277.022516 39.239949 278.604488 
C 37.657978 280.186459 35.512063 281.075326 33.274817 281.075326 
C 31.037572 281.075326 28.891657 280.186459 27.309685 278.604488 
C 25.727714 277.022516 24.838847 274.876601 24.838847 272.639356 
C 24.838847 270.402111 25.727714 268.256196 27.309685 266.674224 
C 28.891657 265.092253 31.037572 264.203386 33.274817 264.203386 
z
" clip-path="url(#pf6275e5142)" style="fill: #bf8f2e; stroke: #7f5f1e; stroke-width: 1.2; stroke-linejoin: miter"/>
   </g>
   <g id="patch_28">
    <path d="M 298.624428 205.9185 
L 310.128024 187.512747 
L 303.225866 187.512747 
L 303.225866 170.640806 
L 294.022989 170.640806 
L 294.022989 187.512747 
L 287.120832 187.512747 
z
" clip-path="url(#pf6275e5142)" style="fill: #a11e1e"/>
   </g>
   <g id="patch_29">
    <path d="M 298.624428 411.449412 
L 287.120832 429.855166 
L 294.022989 429.855166 
L 294.022989 446.727106 
L 303.225866 446.727106 
L 303.225866 429.855166 
L 310.128024 429.855166 
z
" clip-path="url(#pf6275e5142)" style="fill: #27a7df"/>
   </g>
   <g id="text_13">
    <!-- fall point -->
    <g style="fill: #c55a11" transform="translate(275.529834 303.774267) scale(0.1 -0.1)">
     <defs>
      <path id="DejaVuSans-Bold-66" d="M 2841 4863 
L 2841 4128 
L 2222 4128 
Q 1984 4128 1890 4042 
Q 1797 3956 1797 3744 
L 1797 3500 
L 2753 3500 
L 2753 2700 
L 1797 2700 
L 1797 0 
L 678 0 
L 678 2700 
L 122 2700 
L 122 3500 
L 678 3500 
L 678 3744 
Q 678 4316 997 4589 
Q 1316 4863 1984 4863 
L 2841 4863 
z
" transform="scale(0.015625)"/>
      <path id="DejaVuSans-Bold-70" d="M 1656 506 
L 1656 -1331 
L 538 -1331 
L 538 3500 
L 1656 3500 
L 1656 2988 
Q 1888 3294 2169 3439 
Q 2450 3584 2816 3584 
Q 3463 3584 3878 3070 
Q 4294 2556 4294 1747 
Q 4294 938 3878 423 
Q 3463 -91 2816 -91 
Q 2450 -91 2169 54 
Q 1888 200 1656 506 
z
M 2400 2772 
Q 2041 2772 1848 2508 
Q 1656 2244 1656 1747 
Q 1656 1250 1848 986 
Q 2041 722 2400 722 
Q 2759 722 2948 984 
Q 3138 1247 3138 1747 
Q 3138 2247 2948 2509 
Q 2759 2772 2400 2772 
z
" transform="scale(0.015625)"/>
      <path id="DejaVuSans-Bold-69" d="M 538 3500 
L 1656 3500 
L 1656 0 
L 538 0 
L 538 3500 
z
M 538 4863 
L 1656 4863 
L 1656 3950 
L 538 3950 
L 538 4863 
z
" transform="scale(0.015625)"/>
     </defs>
     <use xlink:href="#DejaVuSans-Bold-66"/>
     <use xlink:href="#DejaVuSans-Bold-61" transform="translate(43.505859 0)"/>
     <use xlink:href="#DejaVuSans-Bold-6c" transform="translate(110.986328 0)"/>
     <use xlink:href="#DejaVuSans-Bold-6c" transform="translate(145.263672 0)"/>
     <use xlink:href="#DejaVuSans-Bold-20" transform="translate(179.541016 0)"/>
     <use xlink:href="#DejaVuSans-Bold-70" transform="translate(214.355469 0)"/>
     <use xlink:href="#DejaVuSans-Bold-6f" transform="translate(285.9375 0)"/>
     <use xlink:href="#DejaVuSans-Bold-69" transform="translate(354.638672 0)"/>
     <use xlink:href="#DejaVuSans-Bold-6e" transform="translate(388.916016 0)"/>
     <use xlink:href="#DejaVuSans-Bold-74" transform="translate(460.107422 0)"/>
    </g>
   </g>
   <g id="text_14">
    <!-- door -->
    <g style="fill: #c55a11" transform="translate(408.47476 515.992492) rotate(-90) scale(0.09 -0.09)">
     <use xlink:href="#DejaVuSans-64"/>
     <use xlink:href="#DejaVuSans-6f" transform="translate(63.476562 0)"/>
     <use xlink:href="#DejaVuSans-6f" transform="translate(124.658203 0)"/>
     <use xlink:href="#DejaVuSans-72" transform="translate(185.839844 0)"/>
    </g>
   </g>
  </g>
 </g>
 <defs>
  <clipPath id="pf6275e5142">
   <rect x="7.2" y="32.597656" width="494.654621" height="540.669004"/>
  </clipPath>
 </defs>
 <defs>
  <pattern id="hd6b99be8d1" patternUnits="userSpaceOnUse" x="0" y="0" width="72" height="72">
   <rect x="0" y="0" width="73" height="73" fill="none"/>
   <path d="M -36 36 
L 36 -36 
M -33 39 
L 39 -33 
M -30 42 
L 42 -30 
M -27 45 
L 45 -27 
M -24 48 
L 48 -24 
M -21 51 
L 51 -21 
M -18 54 
L 54 -18 
M -15 57 
L 57 -15 
M -12 60 
L 60 -12 
M -9 63 
L 63 -9 
M -6 66 
L 66 -6 
M -3 69 
L 69 -3 
M 0 72 
L 72 0 
M 3 75 
L 75 3 
M 6 78 
L 78 6 
M 9 81 
L 81 9 
M 12 84 
L 84 12 
M 15 87 
L 87 15 
M 18 90 
L 90 18 
M 21 93 
L 93 21 
M 24 96 
L 96 24 
M 27 99 
L 99 27 
M 30 102 
L 102 30 
M 33 105 
L 105 33 
M 36 108 
L 108 36 
" style="fill: #c9a227; stroke: #c9a227; stroke-width: 1.0; stroke-linecap: butt; stroke-linejoin: miter"/>
  </pattern>
 </defs>
</svg>
